<svg width="40" height="40" viewBox="0 0 40 40" fill="none" xmlns="http://www.w3.org/2000/svg">
<path d="M38.0625 29.0919C35.9688 30.1856 25.125 34.6231 22.8125 35.8419C20.5 37.0606 19.2188 37.0294 17.4063 36.1544C15.5938 35.2794 4.0625 30.6544 1.96875 29.6544C0.9375 29.1544 0.40625 28.7481 0.40625 28.3419V24.3731C0.40625 24.3731 15.4063 21.0919 17.8438 20.2481C20.2813 19.3731 21.0938 19.3419 23.1562 20.0919C25.2188 20.8419 37.5625 23.0606 39.5938 23.8106V27.7169C39.5938 28.1231 39.125 28.5606 38.0625 29.0919Z" fill="#A41E11"/>
<path d="M38.0621 25.1544C35.9683 26.2481 25.1246 30.6856 22.8121 31.9044C20.4996 33.1231 19.2183 33.0919 17.4058 32.2169C15.5933 31.3419 4.06208 26.6856 1.96833 25.6856C-0.0941674 24.6856 -0.156668 23.9981 1.87458 23.2169C3.90583 22.4044 15.3746 17.9044 17.8121 17.0606C20.2496 16.1856 21.0621 16.1544 23.1246 16.9044C25.1871 17.6544 35.9683 21.9356 37.9996 22.6856C40.0933 23.4356 40.1558 24.0606 38.0621 25.1544Z" fill="#D82C20"/>
<path d="M38.0625 22.6544C35.9688 23.7481 25.125 28.1856 22.8125 29.4044C20.5 30.5919 19.2188 30.5919 17.4063 29.7169C15.5938 28.8419 4.0625 24.1856 1.96875 23.1856C0.9375 22.6856 0.40625 22.2794 0.40625 21.8731V17.9044C0.40625 17.9044 15.4063 14.6231 17.8438 13.7794C20.2813 12.9044 21.0938 12.8731 23.1562 13.6231C25.2188 14.3731 37.5625 16.5919 39.5938 17.3419V21.2481C39.5938 21.6544 39.125 22.0919 38.0625 22.6544Z" fill="#A41E11"/>
<path d="M38.0629 18.6856C35.9691 19.7794 25.1254 24.2169 22.8129 25.4356C20.5004 26.6231 19.2191 26.6231 17.4066 25.7481C15.5941 24.8731 4.06286 20.2169 1.96911 19.2169C-0.124645 18.2169 -0.155895 17.5294 1.87536 16.7481C3.90661 15.9356 15.3754 11.4356 17.8129 10.5919C20.2504 9.71687 21.0629 9.68562 23.1254 10.4356C25.1879 11.1856 35.9691 15.4669 38.0004 16.2169C40.0941 16.9669 40.1566 17.5919 38.0629 18.6856Z" fill="#D82C20"/>
<path d="M38.0625 15.9356C35.9688 17.0294 25.125 21.4669 22.8125 22.6856C20.5 23.8731 19.2188 23.8731 17.4063 22.9981C15.5938 22.1544 4.0625 17.4981 1.96875 16.4981C0.9375 15.9981 0.375 15.5919 0.375 15.1856V11.2169C0.375 11.2169 15.375 7.93562 17.8125 7.09187C20.25 6.21687 21.0625 6.18562 23.125 6.93562C25.1875 7.68562 37.5313 9.90437 39.5625 10.6544V14.5606C39.5938 14.9669 39.125 15.3731 38.0625 15.9356Z" fill="#A41E11"/>
<path d="M38.0629 11.9669C35.9691 13.0606 25.1254 17.4981 22.8129 18.7169C20.5004 19.9044 19.2191 19.9044 17.4066 19.0294C15.5941 18.1544 4.06286 13.5294 1.96911 12.5294C-0.124645 11.5294 -0.155895 10.8419 1.87536 10.0606C3.90661 9.24812 15.3754 4.74812 17.8129 3.90437C20.2504 3.02937 21.0629 2.99812 23.1254 3.74812C25.1879 4.49812 35.9691 8.77937 38.0004 9.52937C40.0941 10.2794 40.1566 10.9044 38.0629 11.9669Z" fill="#D82C20"/>
<path d="M25.125 8.15625L21.75 8.53125L20.9687 10.3437L19.75 8.3125L15.8438 7.96875L18.75 6.90625L17.875 5.28125L20.625 6.34375L23.1875 5.5L22.5 7.1875L25.125 8.15625ZM20.7812 17.0312L14.4375 14.4062L23.5313 13.0313L20.7812 17.0312Z" fill="white"/>
<path d="M12 12.9375C14.6751 12.9375 16.8438 12.098 16.8438 11.0625C16.8438 10.027 14.6751 9.1875 12 9.1875C9.32487 9.1875 7.15625 10.027 7.15625 11.0625C7.15625 12.098 9.32487 12.9375 12 12.9375Z" fill="white"/>
<path d="M29.1562 8.65625L34.5312 10.7812L29.1562 12.9062V8.65625Z" fill="#7A0C00"/>
<path d="M23.2188 11.0312L29.1562 8.65625V12.9062L28.5625 13.1562L23.2188 11.0312Z" fill="#AD2115"/>
</svg>
