<svg width="16" height="16" viewBox="0 0 16 16" fill="none" xmlns="http://www.w3.org/2000/svg">
<path d="M13.6268 5.59659L13.4447 5.59353L7.96421 3.971L7.96094 3.89592V1.16016L13.6272 3.99376L13.6268 5.59659Z" fill="white"/>
<path d="M7.96074 4.0599L7.96132 1.16016L2.2947 3.99265L2.29395 12.0063L2.29678 12.0078V12.0079L7.96017 14.84L7.97898 14.8138L7.97168 12.119L7.96056 12.104L7.60657 11.8516L3.22365 10.5456L3.24579 5.47657L7.96074 4.0599Z" fill="#8A8A8A"/>
<path d="M8.80789 9.80679L3.01758 10.6213L3.01798 5.37891L8.80829 6.19455L8.80789 9.80679Z" fill="white"/>
<path d="M5.87402 9.47445L7.96064 9.74007L7.961 6.25781L5.87442 6.52322L5.87402 9.47445Z" fill="#8A8A8A"/>
<path d="M3.77246 9.20593L5.1266 9.37805L5.127 6.61719L3.77246 6.78971V9.20593Z" fill="#8A8A8A"/>
<path d="M3.01855 5.3769L7.96164 3.89453L13.6275 5.5952L8.81246 6.19294L3.01855 5.3769Z" fill="#4B4B4B"/>
<path d="M13.6247 9.01239L7.96094 9.72715L7.96129 6.25781L13.6247 6.97925V9.01239Z" fill="white"/>
<path d="M13.6237 10.4062L13.5018 10.4115L7.97776 12.0836L7.96036 12.1048L7.95996 14.8408L13.6237 12.0097V10.4062Z" fill="white"/>
<path d="M3.01758 10.6192L7.96031 12.1025L13.6237 10.4039L8.80789 9.80469L3.01758 10.6192Z" fill="#DFDFDF"/>
</svg>
