<svg width="17" height="16" viewBox="0 0 17 16" fill="none" xmlns="http://www.w3.org/2000/svg">
<g clip-path="url(#clip0_1067_630)">
<path d="M15.9284 7.99888C15.9284 9.96906 15.1458 11.8586 13.7527 13.2517C12.3595 14.6448 10.47 15.4275 8.49986 15.4275C6.52968 15.4275 4.64019 14.6448 3.24707 13.2517C1.85394 11.8586 1.07129 9.96906 1.07129 7.99888M15.9284 7.99888C15.9284 6.0287 15.1458 4.13922 13.7527 2.74609C12.3595 1.35296 10.47 0.570313 8.49986 0.570312C6.52968 0.570313 4.64019 1.35296 3.24707 2.74609C1.85394 4.13922 1.07129 6.0287 1.07129 7.99888M15.9284 7.99888H1.07129" stroke="black" stroke-linecap="round" stroke-linejoin="round"/>
<path d="M11.3569 7.99888C11.2165 10.7154 10.2159 13.317 8.49972 15.4275C6.78352 13.317 5.78292 10.7154 5.64258 7.99888C5.78292 5.28232 6.78352 2.68077 8.49972 0.570312C10.2159 2.68077 11.2165 5.28232 11.3569 7.99888Z" stroke="black" stroke-linecap="round" stroke-linejoin="round"/>
</g>
<defs>
<clipPath id="clip0_1067_630">
<rect width="16" height="16" fill="white" transform="translate(0.5)"/>
</clipPath>
</defs>
</svg>
